# xmcd CD database file
#
# Track frame offsets:
#	150
#	15001
#	35347
#	48506
#	68215
#	86337
#	107101
#	119374
#	141053
#	154782
#	169809
#	184895
#	204214
#	220018
#	236169
#	254837
#	269308
#
# Disc length: 3746 seconds
#
# Revision: 1
# Processed by: cddbd v1.5.1PL2 Copyright (c) Steve Scherf et al.
# Submitted via: CDex 1.51
#
DISCID=e90ea011
DTITLE=rat purdy - rat purdy
DYEAR=2003
DGENRE=Country
TTITLE0=Western Swing
TTITLE1=The One That I Love
TTITLE2=Jackson
TTITLE3=Ain't No Ash Will Burn
TTITLE4=Game Seven
TTITLE5=The Backhoe Song
TTITLE6=Detour
TTITLE7=Angel of Montgomery
TTITLE8=Make Up Your Mind
TTITLE9=Amarillo
TTITLE10=All I Want To Do
TTITLE11=Sleepwalk Medley
TTITLE12=Go To The Lake
TTITLE13=Tennessee Waltz
TTITLE14=Fever
TTITLE15=In The Jailhouse Now
TTITLE16=Crazy
EXTD=YEAR: 2003
EXTT0=
EXTT1=
EXTT2=
EXTT3=
EXTT4=
EXTT5=
EXTT6=
EXTT7=
EXTT8=
EXTT9=
EXTT10=
EXTT11=
EXTT12=
EXTT13=
EXTT14=
EXTT15=
EXTT16=
PLAYORDER=
